<svg xmlns="http://www.w3.org/2000/svg" viewBox="0 0 64 64">
  <defs>
    <linearGradient id="ng" x1="0" y1="0" x2="1" y2="1">
      <stop offset="0%" stop-color="#1a5e3a"/>
      <stop offset="50%" stop-color="#10b981"/>
      <stop offset="100%" stop-color="#6dca4f"/>
    </linearGradient>
    <linearGradient id="stripe" x1="0" y1="0" x2="1" y2="1">
      <stop offset="0%" stop-color="#34d399"/>
      <stop offset="100%" stop-color="#a7f3d0"/>
    </linearGradient>
  </defs>
  <!-- Rounded square background -->
  <rect width="64" height="64" rx="14" fill="#1a3a2a"/>
  <!-- Bold stylized N -->
  <path d="M15 50 V18 c0-2 1-4 3-4 h2 c1.5 0 3 .8 3.8 2.2 L40 42 V18 c0-2 1.5-4 3.5-4 h1 c2 0 3.5 2 3.5 4 v32 c0 2-1 4-3 4 h-2 c-1.5 0-3-.8-3.8-2.2 L23 26 v24 c0 2-1.5 4-3.5 4 h-1 C16.5 54 15 52 15 50z" fill="url(#ng)"/>
  <!-- Diagonal stripes across the N (signature detail from logo) -->
  <line x1="26" y1="20" x2="32" y2="48" stroke="url(#stripe)" stroke-width="1.8" stroke-linecap="round" opacity=".7"/>
  <line x1="29" y1="18" x2="35" y2="46" stroke="url(#stripe)" stroke-width="1.8" stroke-linecap="round" opacity=".55"/>
  <line x1="32" y1="16" x2="38" y2="44" stroke="url(#stripe)" stroke-width="1.8" stroke-linecap="round" opacity=".4"/>
  <!-- Tiny footprint accent (top-right) -->
  <ellipse cx="51" cy="11" rx="3.5" ry="4.5" fill="#34d399" opacity=".85"/>
  <circle cx="48" cy="5.5" r="1.2" fill="#34d399" opacity=".7"/>
  <circle cx="50" cy="4" r="1.2" fill="#34d399" opacity=".7"/>
  <circle cx="52.2" cy="4" r="1.2" fill="#34d399" opacity=".7"/>
  <circle cx="54.2" cy="5.5" r="1.2" fill="#34d399" opacity=".7"/>
</svg>
